<svg width="284" height="284" viewBox="0 0 284 284" fill="none" xmlns="http://www.w3.org/2000/svg">
<g clip-path="url(#clip0_583_293)">
<path d="M238.09 165.73C238.09 211.22 198.23 231.23 145.03 231.23C91.8299 231.23 45.4399 211.22 45.4399 165.73C45.4399 120.24 88.5599 83.3599 141.76 83.3599C194.96 83.3599 238.08 120.24 238.08 165.73H238.09Z" fill="#3FE0D1"/>
<path d="M211.22 182.71C211.22 211.48 179.91 222.34 141.29 222.34C102.67 222.34 71.3601 211.48 71.3601 182.71C71.3601 153.94 102.67 130.62 141.29 130.62C179.91 130.62 211.22 153.94 211.22 182.71Z" fill="white"/>
<path d="M111.08 190.36C115.968 190.36 119.93 184.052 119.93 176.27C119.93 168.488 115.968 162.18 111.08 162.18C106.192 162.18 102.23 168.488 102.23 176.27C102.23 184.052 106.192 190.36 111.08 190.36Z" fill="#231F20"/>
<path d="M171.74 190.36C176.628 190.36 180.59 184.052 180.59 176.27C180.59 168.488 176.628 162.18 171.74 162.18C166.852 162.18 162.89 168.488 162.89 176.27C162.89 184.052 166.852 190.36 171.74 190.36Z" fill="#231F20"/>
<path d="M142.68 185.15C146.115 185.15 148.9 182.365 148.9 178.93C148.9 175.495 146.115 172.71 142.68 172.71C139.245 172.71 136.46 175.495 136.46 178.93C136.46 182.365 139.245 185.15 142.68 185.15Z" fill="#231F20"/>
<path d="M141.59 199.75C133.54 199.75 126.99 195.38 126.99 190.02C126.99 189.59 127.34 189.24 127.77 189.24C128.2 189.24 128.55 189.59 128.55 190.02C128.55 194.52 134.4 198.19 141.59 198.19C148.78 198.19 154.63 194.53 154.63 190.02C154.63 189.59 154.98 189.24 155.41 189.24C155.84 189.24 156.19 189.59 156.19 190.02C156.19 195.39 149.64 199.75 141.59 199.75Z" fill="#231F20"/>
<path d="M283.46 157.77C283.46 171.3 255.1 205.98 241.57 205.98C228.04 205.98 217.07 195.01 217.07 181.48C217.07 167.95 228.04 156.98 241.57 156.98C255.1 156.98 283.46 144.24 283.46 157.77Z" fill="#3FE0D1"/>
<path d="M0 157.41C0 170.94 28.36 205.62 41.89 205.62C55.42 205.62 66.39 194.65 66.39 181.12C66.39 167.59 55.42 156.62 41.89 156.62C28.36 156.62 0 143.88 0 157.41Z" fill="#3FE0D1"/>
<path d="M207.86 121.67C227.035 121.67 242.58 106.125 242.58 86.95C242.58 67.7747 227.035 52.23 207.86 52.23C188.685 52.23 173.14 67.7747 173.14 86.95C173.14 106.125 188.685 121.67 207.86 121.67Z" fill="white" stroke="#3FE0D1" stroke-width="4" stroke-miterlimit="10"/>
<path d="M163.2 107.98C174.273 107.98 183.25 99.0032 183.25 87.9299C183.25 76.8566 174.273 67.8799 163.2 67.8799C152.127 67.8799 143.15 76.8566 143.15 87.9299C143.15 99.0032 152.127 107.98 163.2 107.98Z" fill="white" stroke="#3FE0D1" stroke-width="4" stroke-miterlimit="10"/>
<path d="M71.7099 117.63C80.5686 117.63 87.7499 110.448 87.7499 101.59C87.7499 92.7312 80.5686 85.5498 71.7099 85.5498C62.8513 85.5498 55.6699 92.7312 55.6699 101.59C55.6699 110.448 62.8513 117.63 71.7099 117.63Z" fill="white" stroke="#3FE0D1" stroke-width="4" stroke-miterlimit="10"/>
<path d="M58.78 128.95C65.2859 128.95 70.56 123.676 70.56 117.17C70.56 110.664 65.2859 105.39 58.78 105.39C52.2741 105.39 47 110.664 47 117.17C47 123.676 52.2741 128.95 58.78 128.95Z" fill="white" stroke="#3FE0D1" stroke-width="4" stroke-miterlimit="10"/>
<path d="M114.94 181.52C117.061 181.52 118.78 179.801 118.78 177.68C118.78 175.559 117.061 173.84 114.94 173.84C112.819 173.84 111.1 175.559 111.1 177.68C111.1 179.801 112.819 181.52 114.94 181.52Z" fill="white"/>
<path d="M168.11 181.52C170.231 181.52 171.95 179.801 171.95 177.68C171.95 175.559 170.231 173.84 168.11 173.84C165.989 173.84 164.27 175.559 164.27 177.68C164.27 179.801 165.989 181.52 168.11 181.52Z" fill="white"/>
<path d="M87.02 199.07C93.3603 199.07 98.5 196.075 98.5 192.38C98.5 188.685 93.3603 185.69 87.02 185.69C80.6798 185.69 75.54 188.685 75.54 192.38C75.54 196.075 80.6798 199.07 87.02 199.07Z" fill="#FFCCB3"/>
<path d="M193.45 199.07C199.79 199.07 204.93 196.075 204.93 192.38C204.93 188.685 199.79 185.69 193.45 185.69C187.11 185.69 181.97 188.685 181.97 192.38C181.97 196.075 187.11 199.07 193.45 199.07Z" fill="#FFCCB3"/>
</g>
<defs>
<clipPath id="clip0_583_293">
<rect width="283.46" height="283.46" fill="white"/>
</clipPath>
</defs>
</svg>
