<svg width="284" height="284" viewBox="0 0 284 284" fill="none" xmlns="http://www.w3.org/2000/svg">
<g clip-path="url(#clip0_583_321)">
<path d="M226.43 129.92H219.43C219.43 100.78 184.8 77.0698 142.23 77.0698C99.66 77.0698 65.03 100.78 65.03 129.92H58.03C58.03 96.9198 95.8 70.0698 142.23 70.0698C188.66 70.0698 226.43 96.9198 226.43 129.92Z" fill="#DC4F89"/>
<path d="M238.09 165.92C238.09 211.41 198.23 231.42 145.03 231.42C91.8299 231.42 45.4399 211.41 45.4399 165.92C45.4399 120.43 88.5599 83.5498 141.76 83.5498C194.96 83.5498 238.08 120.43 238.08 165.92H238.09Z" fill="#3FE0D1"/>
<path d="M211.22 182.89C211.22 211.66 179.91 222.52 141.29 222.52C102.67 222.52 71.3601 211.66 71.3601 182.89C71.3601 154.12 102.67 130.8 141.29 130.8C179.91 130.8 211.22 154.12 211.22 182.89Z" fill="white"/>
<path d="M111.08 190.54C115.968 190.54 119.93 184.232 119.93 176.45C119.93 168.668 115.968 162.36 111.08 162.36C106.192 162.36 102.23 168.668 102.23 176.45C102.23 184.232 106.192 190.54 111.08 190.54Z" fill="#231F20"/>
<path d="M171.74 190.54C176.628 190.54 180.59 184.232 180.59 176.45C180.59 168.668 176.628 162.36 171.74 162.36C166.852 162.36 162.89 168.668 162.89 176.45C162.89 184.232 166.852 190.54 171.74 190.54Z" fill="#231F20"/>
<path d="M142.68 185.34C146.115 185.34 148.9 182.555 148.9 179.12C148.9 175.685 146.115 172.9 142.68 172.9C139.245 172.9 136.46 175.685 136.46 179.12C136.46 182.555 139.245 185.34 142.68 185.34Z" fill="#231F20"/>
<path d="M141.59 199.94C133.54 199.94 126.99 195.57 126.99 190.21C126.99 189.78 127.34 189.43 127.77 189.43C128.2 189.43 128.55 189.78 128.55 190.21C128.55 194.71 134.4 198.38 141.59 198.38C148.78 198.38 154.63 194.72 154.63 190.21C154.63 189.78 154.98 189.43 155.41 189.43C155.84 189.43 156.19 189.78 156.19 190.21C156.19 195.58 149.64 199.94 141.59 199.94Z" fill="#231F20"/>
<path d="M283.46 157.95C283.46 171.48 255.1 206.16 241.57 206.16C228.04 206.16 217.07 195.19 217.07 181.66C217.07 168.13 228.04 157.16 241.57 157.16C255.1 157.16 283.46 144.42 283.46 157.95Z" fill="#3FE0D1"/>
<path d="M0 157.59C0 171.12 28.36 205.8 41.89 205.8C55.42 205.8 66.39 194.83 66.39 181.3C66.39 167.77 55.42 156.8 41.89 156.8C28.36 156.8 0 144.06 0 157.59Z" fill="#3FE0D1"/>
<path d="M114.94 181.7C117.061 181.7 118.78 179.981 118.78 177.86C118.78 175.739 117.061 174.02 114.94 174.02C112.819 174.02 111.1 175.739 111.1 177.86C111.1 179.981 112.819 181.7 114.94 181.7Z" fill="white"/>
<path d="M168.11 181.7C170.231 181.7 171.95 179.981 171.95 177.86C171.95 175.739 170.231 174.02 168.11 174.02C165.989 174.02 164.27 175.739 164.27 177.86C164.27 179.981 165.989 181.7 168.11 181.7Z" fill="white"/>
<path d="M87.02 199.25C93.3603 199.25 98.5 196.255 98.5 192.56C98.5 188.865 93.3603 185.87 87.02 185.87C80.6798 185.87 75.54 188.865 75.54 192.56C75.54 196.255 80.6798 199.25 87.02 199.25Z" fill="#FFCCB3"/>
<path d="M193.45 199.25C199.79 199.25 204.93 196.255 204.93 192.56C204.93 188.865 199.79 185.87 193.45 185.87C187.11 185.87 181.97 188.865 181.97 192.56C181.97 196.255 187.11 199.25 193.45 199.25Z" fill="#FFCCB3"/>
<path d="M231.73 94.8002L226.02 102.94C225.54 103.62 224.56 103.7 223.98 103.11C223.62 102.74 223.5 102.2 223.68 101.72L228.83 87.6802C228.97 87.2902 228.93 86.8602 228.71 86.5102L225.91 82.0502C225.34 81.1402 223.97 81.2502 223.55 82.2402L208.6 118C208.41 118.46 208.49 118.98 208.8 119.36L217.61 130.04C218 130.51 218.67 130.66 219.22 130.39L246.29 117.26C247 116.91 247.26 116.03 246.84 115.35L233.95 94.8302C233.44 94.0202 232.28 93.9902 231.73 94.7702V94.8002Z" fill="#FFC4E3" stroke="#F96EAE" stroke-width="3" stroke-miterlimit="10"/>
<path d="M49.7099 91.4198L55.4199 99.5598C55.8999 100.24 56.8799 100.32 57.4599 99.7298C57.8199 99.3598 57.9399 98.8198 57.7599 98.3398L52.6099 84.2998C52.4699 83.9098 52.5099 83.4798 52.7299 83.1298L55.5299 78.6698C56.0999 77.7598 57.4699 77.8698 57.8899 78.8598L72.8399 114.62C73.0299 115.08 72.9499 115.6 72.6399 115.98L63.8299 126.66C63.4399 127.13 62.7699 127.28 62.2199 127.01L35.1499 113.88C34.4399 113.53 34.1799 112.65 34.5999 111.97L47.4899 91.4498C47.9999 90.6398 49.1599 90.6098 49.7099 91.3898V91.4198Z" fill="#FFC4E3" stroke="#F96EAE" stroke-width="3" stroke-miterlimit="10"/>
<path d="M64.6 134.19C67.6928 134.19 70.2 131.683 70.2 128.59C70.2 125.497 67.6928 122.99 64.6 122.99C61.5072 122.99 59 125.497 59 128.59C59 131.683 61.5072 134.19 64.6 134.19Z" fill="white"/>
<path d="M72.3799 128.12C77.7536 128.12 82.1099 123.764 82.1099 118.39C82.1099 113.016 77.7536 108.66 72.3799 108.66C67.0062 108.66 62.6499 113.016 62.6499 118.39C62.6499 123.764 67.0062 128.12 72.3799 128.12Z" fill="white"/>
<path d="M208.68 128.12C214.054 128.12 218.41 123.764 218.41 118.39C218.41 113.016 214.054 108.66 208.68 108.66C203.306 108.66 198.95 113.016 198.95 118.39C198.95 123.764 203.306 128.12 208.68 128.12Z" fill="white"/>
<path d="M216.62 134.19C219.713 134.19 222.22 131.683 222.22 128.59C222.22 125.497 219.713 122.99 216.62 122.99C213.527 122.99 211.02 125.497 211.02 128.59C211.02 131.683 213.527 134.19 216.62 134.19Z" fill="white"/>
<path d="M122.61 111.02C133.6 111.02 142.51 102.111 142.51 91.1202C142.51 80.1298 133.6 71.2202 122.61 71.2202C111.619 71.2202 102.71 80.1298 102.71 91.1202C102.71 102.111 111.619 111.02 122.61 111.02Z" fill="white" stroke="#3FE0D1" stroke-width="4" stroke-miterlimit="10"/>
<path d="M159.99 111.01C176.271 111.01 189.47 97.8112 189.47 81.5298C189.47 65.2484 176.271 52.0498 159.99 52.0498C143.709 52.0498 130.51 65.2484 130.51 81.5298C130.51 97.8112 143.709 111.01 159.99 111.01Z" fill="white" stroke="#3FE0D1" stroke-width="4" stroke-miterlimit="10"/>
</g>
<defs>
<clipPath id="clip0_583_321">
<rect width="283.46" height="283.46" fill="white"/>
</clipPath>
</defs>
</svg>
