<svg width="284" height="284" viewBox="0 0 284 284" fill="none" xmlns="http://www.w3.org/2000/svg">
<g clip-path="url(#clip0_583_381)">
<path d="M104.07 114.62C113.475 114.62 121.1 106.995 121.1 97.5901C121.1 88.1846 113.475 80.5601 104.07 80.5601C94.6646 80.5601 87.04 88.1846 87.04 97.5901C87.04 106.995 94.6646 114.62 104.07 114.62Z" fill="#FFC4E3" stroke="#DC4F89" stroke-width="3" stroke-miterlimit="10"/>
<path d="M51.4199 123.28C38.0699 101.2 38.2899 65.6502 64.1699 52.6802C88.0999 41.5502 113.36 60.5302 124.74 80.8302C136.67 100.81 140.56 132.14 119 147.37C94.8699 163.36 63.9099 145.85 51.4199 123.28ZM73.4799 110.5C80.4899 122.67 95.5099 137.3 110.28 132.31C117.77 129.5 122.11 121.13 122.94 112.96C124.96 94.1302 113.3 73.9802 95.9599 66.3702C88.4599 63.0202 79.0499 62.6302 72.8799 67.7202C61.1899 78.0502 66.3999 98.3602 73.4799 110.5Z" fill="#FFC4E3"/>
<mask id="mask0_583_381" style="mask-type:luminance" maskUnits="userSpaceOnUse" x="42" y="49" width="93" height="105">
<path d="M51.4199 123.28C38.0699 101.2 38.2899 65.6502 64.1699 52.6802C88.0999 41.5502 113.36 60.5302 124.74 80.8302C136.67 100.81 140.56 132.14 119 147.37C94.8699 163.36 63.9099 145.85 51.4199 123.28ZM73.4799 110.5C80.4899 122.67 95.5099 137.3 110.28 132.31C117.77 129.5 122.11 121.13 122.94 112.96C124.96 94.1302 113.3 73.9802 95.9599 66.3702C88.4599 63.0202 79.0499 62.6302 72.8799 67.7202C61.1899 78.0502 66.3999 98.3602 73.4799 110.5Z" fill="white"/>
</mask>
<g mask="url(#mask0_583_381)">
<path d="M58.2898 49.3501C58.2898 49.3501 55.4598 72.5001 60.3998 82.2101C65.3398 91.9201 68.0198 95.2201 70.5698 96.4101C73.1198 97.6001 79.9898 97.9001 79.9898 97.9001L82.2299 104.18C82.2299 104.18 70.2698 105.53 65.3398 100.29C60.4098 95.0501 55.6198 87.4301 54.8798 84.1401C54.1398 80.8501 52.6398 78.1601 52.7898 76.3701C52.9398 74.5801 52.8798 101.62 60.8598 112.85C68.8398 124.08 76.2598 128.85 82.2398 132.28C88.2198 135.72 63.9998 148.72 63.9998 148.72C63.9998 148.72 37.5398 109.55 37.6898 108.36C37.8398 107.17 43.8198 53.4901 43.8198 53.4901L58.3098 49.3301L58.2898 49.3501Z" fill="#F893BD" stroke="#FFC4E3" stroke-miterlimit="10"/>
<path d="M56.2399 76.8499C58.2391 76.8499 59.8599 74.2353 59.8599 71.0099C59.8599 67.7846 58.2391 65.1699 56.2399 65.1699C54.2406 65.1699 52.6199 67.7846 52.6199 71.0099C52.6199 74.2353 54.2406 76.8499 56.2399 76.8499Z" fill="white"/>
<path d="M59.1799 69.14C60.3231 69.14 61.2499 67.6446 61.2499 65.8C61.2499 63.9553 60.3231 62.46 59.1799 62.46C58.0366 62.46 57.1099 63.9553 57.1099 65.8C57.1099 67.6446 58.0366 69.14 59.1799 69.14Z" fill="white"/>
</g>
<path d="M51.4199 123.28C38.0699 101.2 38.2899 65.6502 64.1699 52.6802C88.0999 41.5502 113.36 60.5302 124.74 80.8302C136.67 100.81 140.56 132.14 119 147.37C94.8699 163.36 63.9099 145.85 51.4199 123.28ZM73.4799 110.5C80.4899 122.67 95.5099 137.3 110.28 132.31C117.77 129.5 122.11 121.13 122.94 112.96C124.96 94.1302 113.3 73.9802 95.9599 66.3702C88.4599 63.0202 79.0499 62.6302 72.8799 67.7202C61.1899 78.0502 66.3999 98.3602 73.4799 110.5Z" stroke="#DC4F89" stroke-width="3" stroke-miterlimit="10"/>
<path d="M179.4 114.62C188.805 114.62 196.43 106.995 196.43 97.5901C196.43 88.1846 188.805 80.5601 179.4 80.5601C169.994 80.5601 162.37 88.1846 162.37 97.5901C162.37 106.995 169.994 114.62 179.4 114.62Z" fill="#FFC4E3" stroke="#DC4F89" stroke-width="3" stroke-miterlimit="10"/>
<path d="M232.04 123.28C219.54 145.84 188.59 163.36 164.46 147.37C142.9 132.14 146.79 100.81 158.72 80.8302C170.1 60.5402 195.36 41.5602 219.29 52.6802C245.17 65.6502 245.39 101.21 232.04 123.28ZM209.98 110.5C217.05 98.3602 222.26 78.0502 210.58 67.7202C204.41 62.6302 195 63.0202 187.5 66.3702C170.16 73.9902 158.5 94.1402 160.52 112.96C161.35 121.13 165.7 129.5 173.18 132.31C187.96 137.31 202.97 122.68 209.98 110.5Z" fill="#FFC4E3"/>
<mask id="mask1_583_381" style="mask-type:luminance" maskUnits="userSpaceOnUse" x="149" y="49" width="92" height="105">
<path d="M232.04 123.28C219.54 145.84 188.59 163.36 164.46 147.37C142.9 132.14 146.79 100.81 158.72 80.8302C170.1 60.5402 195.36 41.5602 219.29 52.6802C245.17 65.6502 245.39 101.21 232.04 123.28ZM209.98 110.5C217.05 98.3602 222.26 78.0502 210.58 67.7202C204.41 62.6302 195 63.0202 187.5 66.3702C170.16 73.9902 158.5 94.1402 160.52 112.96C161.35 121.13 165.7 129.5 173.18 132.31C187.96 137.31 202.97 122.68 209.98 110.5Z" fill="white"/>
</mask>
<g mask="url(#mask1_583_381)">
<path d="M225.17 49.3501C225.17 49.3501 228 72.5001 223.06 82.2101C218.12 91.9201 215.44 95.2201 212.89 96.4101C210.34 97.6001 203.47 97.9001 203.47 97.9001L201.23 104.18C201.23 104.18 213.19 105.53 218.12 100.29C223.05 95.0501 227.84 87.4301 228.58 84.1401C229.32 80.8501 230.82 78.1601 230.67 76.3701C230.52 74.5801 230.58 101.62 222.6 112.85C214.8 123.82 207.2 128.85 201.22 132.28C195.24 135.71 219.46 148.72 219.46 148.72C219.46 148.72 245.92 109.55 245.77 108.36C245.62 107.17 239.64 53.4901 239.64 53.4901L225.15 49.3301L225.17 49.3501Z" fill="#F893BD" stroke="#FFC4E3" stroke-miterlimit="10"/>
<path d="M227.22 76.8499C229.219 76.8499 230.84 74.2353 230.84 71.0099C230.84 67.7846 229.219 65.1699 227.22 65.1699C225.221 65.1699 223.6 67.7846 223.6 71.0099C223.6 74.2353 225.221 76.8499 227.22 76.8499Z" fill="white"/>
<path d="M224.28 69.14C225.423 69.14 226.35 67.6446 226.35 65.8C226.35 63.9553 225.423 62.46 224.28 62.46C223.137 62.46 222.21 63.9553 222.21 65.8C222.21 67.6446 223.137 69.14 224.28 69.14Z" fill="white"/>
</g>
<path d="M232.04 123.28C219.54 145.84 188.59 163.36 164.46 147.37C142.9 132.14 146.79 100.81 158.72 80.8302C170.1 60.5402 195.36 41.5602 219.29 52.6802C245.17 65.6502 245.39 101.21 232.04 123.28ZM209.98 110.5C217.05 98.3602 222.26 78.0502 210.58 67.7202C204.41 62.6302 195 63.0202 187.5 66.3702C170.16 73.9902 158.5 94.1402 160.52 112.96C161.35 121.13 165.7 129.5 173.18 132.31C187.96 137.31 202.97 122.68 209.98 110.5Z" stroke="#DC4F89" stroke-width="3" stroke-miterlimit="10"/>
<path d="M238.09 176.55C238.09 222.04 198.23 242.05 145.03 242.05C91.8299 242.05 45.4399 222.04 45.4399 176.55C45.4399 131.06 88.5599 94.1802 141.76 94.1802C194.96 94.1802 238.08 131.06 238.08 176.55H238.09Z" fill="#3FE0D1"/>
<path d="M211.22 193.53C211.22 222.3 179.91 233.16 141.29 233.16C102.67 233.16 71.3601 222.3 71.3601 193.53C71.3601 164.76 102.67 141.44 141.29 141.44C179.91 141.44 211.22 164.76 211.22 193.53Z" fill="white"/>
<path d="M142.68 195.98C146.115 195.98 148.9 193.195 148.9 189.76C148.9 186.325 146.115 183.54 142.68 183.54C139.245 183.54 136.46 186.325 136.46 189.76C136.46 193.195 139.245 195.98 142.68 195.98Z" fill="#231F20"/>
<path d="M141.59 210.57C133.54 210.57 126.99 206.2 126.99 200.84C126.99 200.41 127.34 200.06 127.77 200.06C128.2 200.06 128.55 200.41 128.55 200.84C128.55 205.34 134.4 209.01 141.59 209.01C148.78 209.01 154.63 205.35 154.63 200.84C154.63 200.41 154.98 200.06 155.41 200.06C155.84 200.06 156.19 200.41 156.19 200.84C156.19 206.21 149.64 210.57 141.59 210.57Z" fill="#231F20"/>
<path d="M283.46 168.59C283.46 182.12 255.1 216.8 241.57 216.8C228.04 216.8 217.07 205.83 217.07 192.3C217.07 178.77 228.04 167.8 241.57 167.8C255.1 167.8 283.46 155.06 283.46 168.59Z" fill="#3FE0D1"/>
<path d="M0 168.23C0 181.76 28.36 216.44 41.89 216.44C55.42 216.44 66.39 205.47 66.39 191.94C66.39 178.41 55.42 167.44 41.89 167.44C28.36 167.44 0 154.7 0 168.23Z" fill="#3FE0D1"/>
<path d="M87.02 209.89C93.3603 209.89 98.5 206.895 98.5 203.2C98.5 199.505 93.3603 196.51 87.02 196.51C80.6798 196.51 75.54 199.505 75.54 203.2C75.54 206.895 80.6798 209.89 87.02 209.89Z" fill="#FFCCB3"/>
<path d="M193.45 209.89C199.79 209.89 204.93 206.895 204.93 203.2C204.93 199.505 199.79 196.51 193.45 196.51C187.11 196.51 181.97 199.505 181.97 203.2C181.97 206.895 187.11 209.89 193.45 209.89Z" fill="#FFCCB3"/>
<path d="M181.47 182.12C182.06 176.63 178.37 171.72 173.23 171.17C168.36 170.64 163.94 174.2 162.97 179.23C162.88 179.7 163.19 180.15 163.67 180.2L181.47 182.12Z" fill="#3FE0D1"/>
<path d="M179.33 181.5C180.25 182.79 182.04 182.78 183.32 182.36C186.35 181.43 188.75 178.84 189.19 175.72C189.24 175.45 189.06 175.19 188.79 175.13C188.54 175.08 188.3 175.22 188.22 175.45C187.49 177.95 185.29 179.76 182.79 180.14C182.32 180.19 181.86 180.23 181.53 180.02C181.5 179.98 181.54 179.97 181.57 180.01C180.57 178.55 178.37 180 179.32 181.49L179.33 181.5Z" fill="#3FE0D1"/>
<path d="M174.93 178.88C175.85 180.17 177.64 180.16 178.92 179.74C181.95 178.81 184.35 176.22 184.79 173.1C184.84 172.83 184.66 172.57 184.39 172.51C184.14 172.46 183.9 172.6 183.82 172.83C183.09 175.33 180.89 177.14 178.39 177.52C177.92 177.57 177.46 177.61 177.13 177.4C177.1 177.36 177.14 177.35 177.17 177.39C176.17 175.93 173.97 177.38 174.92 178.87L174.93 178.88Z" fill="#3FE0D1"/>
<path d="M171.74 201.18C176.628 201.18 180.59 194.872 180.59 187.09C180.59 179.308 176.628 173 171.74 173C166.852 173 162.89 179.308 162.89 187.09C162.89 194.872 166.852 201.18 171.74 201.18Z" fill="#231F20"/>
<path d="M168.11 192.34C170.231 192.34 171.95 190.621 171.95 188.5C171.95 186.379 170.231 184.66 168.11 184.66C165.989 184.66 164.27 186.379 164.27 188.5C164.27 190.621 165.989 192.34 168.11 192.34Z" fill="white"/>
<path d="M101.59 182.12C101 176.63 104.69 171.72 109.83 171.17C114.7 170.64 119.12 174.2 120.09 179.23C120.18 179.7 119.87 180.15 119.39 180.2L101.59 182.12Z" fill="#3FE0D1"/>
<path d="M103.74 181.5C102.82 182.79 101.03 182.78 99.7499 182.36C96.7199 181.43 94.3199 178.84 93.8799 175.72C93.8299 175.45 94.0099 175.19 94.2799 175.13C94.5299 175.08 94.7699 175.22 94.8499 175.45C95.5799 177.95 97.7799 179.76 100.28 180.14C100.75 180.19 101.21 180.23 101.54 180.02C101.57 179.98 101.53 179.97 101.5 180.01C102.5 178.55 104.7 180 103.75 181.49L103.74 181.5Z" fill="#3FE0D1"/>
<path d="M108.13 178.88C107.21 180.17 105.42 180.16 104.14 179.74C101.11 178.81 98.7101 176.22 98.2701 173.1C98.2201 172.83 98.4001 172.57 98.6701 172.51C98.9201 172.46 99.1601 172.6 99.2401 172.83C99.9701 175.33 102.17 177.14 104.67 177.52C105.14 177.57 105.6 177.61 105.93 177.4C105.96 177.36 105.92 177.35 105.89 177.39C106.89 175.93 109.09 177.38 108.14 178.87L108.13 178.88Z" fill="#3FE0D1"/>
<path d="M111.08 201.18C115.968 201.18 119.93 194.872 119.93 187.09C119.93 179.308 115.968 173 111.08 173C106.192 173 102.23 179.308 102.23 187.09C102.23 194.872 106.192 201.18 111.08 201.18Z" fill="#231F20"/>
<path d="M114.94 192.34C117.061 192.34 118.78 190.621 118.78 188.5C118.78 186.379 117.061 184.66 114.94 184.66C112.819 184.66 111.1 186.379 111.1 188.5C111.1 190.621 112.819 192.34 114.94 192.34Z" fill="white"/>
<path d="M163.87 96.1501L163.9 73.7401L156.7 88.1001C154.58 86.7001 152.09 85.4701 149.34 84.6201L142.02 68.3901L134.48 84.5001C131.55 85.3501 128.9 86.6501 126.67 88.1301L119.52 73.7801L119.49 96.5001C119.49 96.5001 119.5 96.5501 119.5 96.5701C119.5 96.6601 119.48 96.7601 119.48 96.8501C119.48 101.01 129.43 104.4 141.71 104.42C153.99 104.44 163.95 101.07 163.96 96.9101C163.96 96.6701 163.92 96.4201 163.86 96.1501H163.87Z" fill="#FCD137" stroke="#FC7E4C" stroke-width="2" stroke-miterlimit="10"/>
<path d="M149.66 87.5303C143.41 88.4503 142.66 89.2003 141.72 95.4503C140.8 89.2003 140.05 88.4503 133.8 87.5103C140.05 86.5903 140.8 85.8403 141.74 79.5903C142.66 85.8403 143.41 86.5903 149.66 87.5303Z" fill="white"/>
<path d="M149.66 87.5303C143.41 88.4503 142.66 89.2003 141.72 95.4503C140.8 89.2003 140.05 88.4503 133.8 87.5103C140.05 86.5903 140.8 85.8403 141.74 79.5903C142.66 85.8403 143.41 86.5903 149.66 87.5303Z" stroke="#2F9BBC" stroke-miterlimit="10"/>
<path d="M129.14 93.1103C130.261 93.1103 131.17 92.2014 131.17 91.0803C131.17 89.9592 130.261 89.0503 129.14 89.0503C128.019 89.0503 127.11 89.9592 127.11 91.0803C127.11 92.2014 128.019 93.1103 129.14 93.1103Z" fill="#2F9BBC"/>
<path d="M154.37 93.1401C155.491 93.1401 156.4 92.2312 156.4 91.1101C156.4 89.9889 155.491 89.0801 154.37 89.0801C153.249 89.0801 152.34 89.9889 152.34 91.1101C152.34 92.2312 153.249 93.1401 154.37 93.1401Z" fill="#2F9BBC"/>
<path d="M141.9 133.88C147.738 133.88 152.47 129.148 152.47 123.31C152.47 117.473 147.738 112.74 141.9 112.74C136.062 112.74 131.33 117.473 131.33 123.31C131.33 129.148 136.062 133.88 141.9 133.88Z" fill="#FFC4E3"/>
<path d="M158.87 127.97C162.935 127.97 166.23 124.675 166.23 120.61C166.23 116.545 162.935 113.25 158.87 113.25C154.805 113.25 151.51 116.545 151.51 120.61C151.51 124.675 154.805 127.97 158.87 127.97Z" fill="white"/>
<path d="M186.68 114.58C189.568 114.58 191.91 112.239 191.91 109.35C191.91 106.462 189.568 104.12 186.68 104.12C183.791 104.12 181.45 106.462 181.45 109.35C181.45 112.239 183.791 114.58 186.68 114.58Z" fill="white"/>
<path d="M138.27 122.77C140.115 122.77 141.61 121.274 141.61 119.43C141.61 117.585 140.115 116.09 138.27 116.09C136.425 116.09 134.93 117.585 134.93 119.43C134.93 121.274 136.425 122.77 138.27 122.77Z" fill="white"/>
<path d="M174.72 125.64C179.856 125.64 184.02 121.476 184.02 116.34C184.02 111.204 179.856 107.04 174.72 107.04C169.584 107.04 165.42 111.204 165.42 116.34C165.42 121.476 169.584 125.64 174.72 125.64Z" fill="white"/>
<path d="M124.56 127.92C128.625 127.92 131.92 124.625 131.92 120.56C131.92 116.495 128.625 113.2 124.56 113.2C120.495 113.2 117.2 116.495 117.2 120.56C117.2 124.625 120.495 127.92 124.56 127.92Z" fill="white"/>
<path d="M108.73 125.56C113.866 125.56 118.03 121.396 118.03 116.26C118.03 111.124 113.866 106.96 108.73 106.96C103.594 106.96 99.4299 111.124 99.4299 116.26C99.4299 121.396 103.594 125.56 108.73 125.56Z" fill="white"/>
<path d="M96.78 114.46C99.6685 114.46 102.01 112.118 102.01 109.23C102.01 106.342 99.6685 104 96.78 104C93.8916 104 91.55 106.342 91.55 109.23C91.55 112.118 93.8916 114.46 96.78 114.46Z" fill="white"/>
<path opacity="0.7" d="M59.0601 157.2C62.0866 157.2 64.5401 154.747 64.5401 151.72C64.5401 148.694 62.0866 146.24 59.0601 146.24C56.0336 146.24 53.5801 148.694 53.5801 151.72C53.5801 154.747 56.0336 157.2 59.0601 157.2Z" fill="white"/>
<path opacity="0.7" d="M54.65 167.82C56.7819 167.82 58.51 166.092 58.51 163.96C58.51 161.828 56.7819 160.1 54.65 160.1C52.5182 160.1 50.79 161.828 50.79 163.96C50.79 166.092 52.5182 167.82 54.65 167.82Z" fill="white"/>
<path opacity="0.7" d="M222.67 148.17C224.802 148.17 226.53 146.442 226.53 144.31C226.53 142.178 224.802 140.45 222.67 140.45C220.538 140.45 218.81 142.178 218.81 144.31C218.81 146.442 220.538 148.17 222.67 148.17Z" fill="white"/>
</g>
<defs>
<clipPath id="clip0_583_381">
<rect width="283.46" height="283.46" fill="white"/>
</clipPath>
</defs>
</svg>
