<svg width="284" height="284" viewBox="0 0 284 284" fill="none" xmlns="http://www.w3.org/2000/svg">
<g clip-path="url(#clip0_583_343)">
<path d="M238.09 180.68C238.09 226.17 198.23 246.18 145.03 246.18C91.8299 246.18 45.4399 226.17 45.4399 180.68C45.4399 135.19 88.5599 98.3101 141.76 98.3101C194.96 98.3101 238.08 135.19 238.08 180.68H238.09Z" fill="#3FE0D1"/>
<path d="M211.22 197.65C211.22 226.42 179.91 237.28 141.29 237.28C102.67 237.28 71.3601 226.42 71.3601 197.65C71.3601 168.88 102.67 145.56 141.29 145.56C179.91 145.56 211.22 168.88 211.22 197.65Z" fill="white"/>
<path d="M111.08 205.31C115.968 205.31 119.93 199.002 119.93 191.22C119.93 183.438 115.968 177.13 111.08 177.13C106.192 177.13 102.23 183.438 102.23 191.22C102.23 199.002 106.192 205.31 111.08 205.31Z" fill="#231F20"/>
<path d="M171.74 205.31C176.628 205.31 180.59 199.002 180.59 191.22C180.59 183.438 176.628 177.13 171.74 177.13C166.852 177.13 162.89 183.438 162.89 191.22C162.89 199.002 166.852 205.31 171.74 205.31Z" fill="#231F20"/>
<path d="M142.68 200.1C146.115 200.1 148.9 197.315 148.9 193.88C148.9 190.445 146.115 187.66 142.68 187.66C139.245 187.66 136.46 190.445 136.46 193.88C136.46 197.315 139.245 200.1 142.68 200.1Z" fill="#231F20"/>
<path d="M141.59 214.7C133.54 214.7 126.99 210.33 126.99 204.97C126.99 204.54 127.34 204.19 127.77 204.19C128.2 204.19 128.55 204.54 128.55 204.97C128.55 209.47 134.4 213.14 141.59 213.14C148.78 213.14 154.63 209.48 154.63 204.97C154.63 204.54 154.98 204.19 155.41 204.19C155.84 204.19 156.19 204.54 156.19 204.97C156.19 210.34 149.64 214.7 141.59 214.7Z" fill="#231F20"/>
<path d="M283.46 172.72C283.46 186.25 255.1 220.93 241.57 220.93C228.04 220.93 217.07 209.96 217.07 196.43C217.07 182.9 228.04 171.93 241.57 171.93C255.1 171.93 283.46 159.19 283.46 172.72Z" fill="#3FE0D1"/>
<path d="M0 172.36C0 185.89 28.36 220.57 41.89 220.57C55.42 220.57 66.39 209.6 66.39 196.07C66.39 182.54 55.42 171.57 41.89 171.57C28.36 171.57 0 158.83 0 172.36Z" fill="#3FE0D1"/>
<path d="M114.94 196.47C117.061 196.47 118.78 194.751 118.78 192.63C118.78 190.509 117.061 188.79 114.94 188.79C112.819 188.79 111.1 190.509 111.1 192.63C111.1 194.751 112.819 196.47 114.94 196.47Z" fill="white"/>
<path d="M168.11 196.47C170.231 196.47 171.95 194.751 171.95 192.63C171.95 190.509 170.231 188.79 168.11 188.79C165.989 188.79 164.27 190.509 164.27 192.63C164.27 194.751 165.989 196.47 168.11 196.47Z" fill="white"/>
<path d="M87.02 214.02C93.3603 214.02 98.5 211.025 98.5 207.33C98.5 203.635 93.3603 200.64 87.02 200.64C80.6798 200.64 75.54 203.635 75.54 207.33C75.54 211.025 80.6798 214.02 87.02 214.02Z" fill="#FFCCB3"/>
<path d="M193.45 214.02C199.79 214.02 204.93 211.025 204.93 207.33C204.93 203.635 199.79 200.64 193.45 200.64C187.11 200.64 181.97 203.635 181.97 207.33C181.97 211.025 187.11 214.02 193.45 214.02Z" fill="#FFCCB3"/>
<path d="M137.69 126.24C151.552 126.24 162.79 115.002 162.79 101.14C162.79 87.2777 151.552 76.04 137.69 76.04C123.828 76.04 112.59 87.2777 112.59 101.14C112.59 115.002 123.828 126.24 137.69 126.24Z" fill="white" stroke="#3FE0D1" stroke-width="4" stroke-miterlimit="10"/>
<path d="M103.5 129.16C114.673 129.16 123.73 120.103 123.73 108.93C123.73 97.7575 114.673 88.7002 103.5 88.7002C92.3273 88.7002 83.27 97.7575 83.27 108.93C83.27 120.103 92.3273 129.16 103.5 129.16Z" fill="white" stroke="#3FE0D1" stroke-width="4" stroke-miterlimit="10"/>
<path d="M59.6101 151.68C67.5077 151.68 73.9101 145.278 73.9101 137.38C73.9101 129.482 67.5077 123.08 59.6101 123.08C51.7124 123.08 45.3101 129.482 45.3101 137.38C45.3101 145.278 51.7124 151.68 59.6101 151.68Z" fill="white" stroke="#3FE0D1" stroke-width="4" stroke-miterlimit="10"/>
<path d="M231.8 160.9C237.908 160.9 242.86 155.948 242.86 149.84C242.86 143.732 237.908 138.78 231.8 138.78C225.692 138.78 220.74 143.732 220.74 149.84C220.74 155.948 225.692 160.9 231.8 160.9Z" fill="white" stroke="#3FE0D1" stroke-width="4" stroke-miterlimit="10"/>
<path d="M266.09 76.6098C260.64 84.1098 249.29 97.5798 230.23 107.19C221.57 111.56 213.35 114.11 206.31 115.61L202.24 104.33L192.84 107.72C189.5 101.44 186.21 93.6498 183.98 84.4098C178.98 63.6598 181.9 46.2998 184.09 37.2798C181.08 38.2498 173.29 41.2098 167.63 49.1298C163.71 54.6098 162.66 59.8698 162.42 61.1598C159.96 74.6598 168.29 86.3998 167.22 86.9698C165.94 87.6598 156.87 68.9798 152.3 70.1998C150.69 70.6298 149.84 73.4798 149.5 77.6598C148.92 84.7198 150.07 91.8098 152.66 98.4098C156.38 107.92 160.11 117.44 163.83 126.95C171.38 125.23 178.93 123.51 186.47 121.79L189.75 130.89L199.09 127.52C203 135.04 206.92 142.56 210.83 150.09C220.49 146.77 230.16 143.45 239.82 140.14C246.52 137.84 252.67 134.13 257.68 129.12C260.64 126.15 262.27 123.67 261.56 122.16C259.53 117.89 239.43 123.07 239.12 121.64C238.86 120.46 253.2 119.21 261.9 108.6C262.73 107.59 266.06 103.38 267.7 96.8398C270.07 87.3998 267.28 79.5398 266.08 76.6198L266.09 76.6098Z" fill="#FFC4E3"/>
<mask id="mask0_583_343" style="mask-type:luminance" maskUnits="userSpaceOnUse" x="149" y="37" width="120" height="114">
<path d="M266.09 76.6098C260.64 84.1098 249.29 97.5798 230.23 107.19C221.57 111.56 213.35 114.11 206.31 115.61L202.24 104.33L192.84 107.72C189.5 101.44 186.21 93.6498 183.98 84.4098C178.98 63.6598 181.9 46.2998 184.09 37.2798C181.08 38.2498 173.29 41.2098 167.63 49.1298C163.71 54.6098 162.66 59.8698 162.42 61.1598C159.96 74.6598 168.29 86.3998 167.22 86.9698C165.94 87.6598 156.87 68.9798 152.3 70.1998C150.69 70.6298 149.84 73.4798 149.5 77.6598C148.92 84.7198 150.07 91.8098 152.66 98.4098C156.38 107.92 160.11 117.44 163.83 126.95C171.38 125.23 178.93 123.51 186.47 121.79L189.75 130.89L199.09 127.52C203 135.04 206.92 142.56 210.83 150.09C220.49 146.77 230.16 143.45 239.82 140.14C246.52 137.84 252.67 134.13 257.68 129.12C260.64 126.15 262.27 123.67 261.56 122.16C259.53 117.89 239.43 123.07 239.12 121.64C238.86 120.46 253.2 119.21 261.9 108.6C262.73 107.59 266.06 103.38 267.7 96.8398C270.07 87.3998 267.28 79.5398 266.08 76.6198L266.09 76.6098Z" fill="white"/>
</mask>
<g mask="url(#mask0_583_343)">
<path d="M237.66 120.93C237.66 120.93 252.37 111.88 255.44 103.81C258.51 95.7396 261.24 65.9896 261.24 65.9896L271.46 58.3096L286.44 82.8896L275.3 109.01L263.39 118.23L237.65 120.92L237.66 120.93Z" fill="white"/>
<path d="M176.69 36.9297C176.69 36.9297 158.63 81.2097 159.11 97.7497C159.57 113.96 169.51 139.87 169.51 139.87L146.51 129.63L130.61 85.5897L136.91 50.8497L176.7 36.9297H176.69Z" fill="white"/>
<path d="M169.35 87.9397C169.35 87.9397 166.22 70.9597 170.16 63.2697C174.1 55.5797 194.37 33.6397 194.37 33.6397L193.23 20.9097L164.94 26.2397L153 51.9997L154.13 67.0197L169.37 87.9397H169.35Z" fill="white"/>
<path d="M271.58 84.8696C271.58 84.8696 247.81 126.36 234.48 136.17C221.42 145.78 194.89 153.91 194.89 153.91L217.12 165.73L261.62 151.15L285.12 124.8L271.59 84.8796L271.58 84.8696Z" fill="white"/>
</g>
<path d="M266.09 76.6098C260.64 84.1098 249.29 97.5798 230.23 107.19C221.57 111.56 213.35 114.11 206.31 115.61L202.24 104.33L192.84 107.72C189.5 101.44 186.21 93.6498 183.98 84.4098C178.98 63.6598 181.9 46.2998 184.09 37.2798C181.08 38.2498 173.29 41.2098 167.63 49.1298C163.71 54.6098 162.66 59.8698 162.42 61.1598C159.96 74.6598 168.29 86.3998 167.22 86.9698C165.94 87.6598 156.87 68.9798 152.3 70.1998C150.69 70.6298 149.84 73.4798 149.5 77.6598C148.92 84.7198 150.07 91.8098 152.66 98.4098C156.38 107.92 160.11 117.44 163.83 126.95C171.38 125.23 178.93 123.51 186.47 121.79L189.75 130.89L199.09 127.52C203 135.04 206.92 142.56 210.83 150.09C220.49 146.77 230.16 143.45 239.82 140.14C246.52 137.84 252.67 134.13 257.68 129.12C260.64 126.15 262.27 123.67 261.56 122.16C259.53 117.89 239.43 123.07 239.12 121.64C238.86 120.46 253.2 119.21 261.9 108.6C262.73 107.59 266.06 103.38 267.7 96.8398C270.07 87.3998 267.28 79.5398 266.08 76.6198L266.09 76.6098Z" stroke="#F96EAE" stroke-width="3" stroke-miterlimit="10"/>
<path d="M199.855 110.226L188.397 114.357L192.454 125.608L203.912 121.476L199.855 110.226Z" fill="#DC4F89"/>
<path d="M203.45 121.1C197.36 119.41 196.37 119.79 192.98 125.12C194.67 119.03 194.29 118.04 188.96 114.65C195.05 116.34 196.04 115.96 199.43 110.63C197.74 116.72 198.12 117.71 203.45 121.1Z" fill="#FCD137"/>
<path d="M181.97 49.9398C177.05 54.1898 172.26 59.1898 170.02 65.4398C169.24 67.5198 168.72 69.7098 168.26 71.9098C168.49 69.6798 168.79 67.4298 169.35 65.2298C171.06 58.4898 175.33 52.7998 179.96 47.7198C181.46 46.2298 183.61 48.5798 181.98 49.9398H181.97Z" fill="#F96EAE"/>
<path d="M260.71 86.0699C260.28 90.7299 259.36 95.1499 257.81 99.5399C256.26 103.86 253.49 107.58 250.4 110.89C254.61 105.63 257.14 99.3199 257.5 92.5899C257.7 90.3899 257.79 88.1299 257.71 85.9999C257.71 83.8999 260.82 83.9699 260.71 86.0699Z" fill="#F96EAE"/>
<path d="M180.95 114.55C183.756 114.55 186.03 112.276 186.03 109.47C186.03 106.665 183.756 104.39 180.95 104.39C178.145 104.39 175.87 106.665 175.87 109.47C175.87 112.276 178.145 114.55 180.95 114.55Z" fill="#F96EAE"/>
<path d="M181.28 115.4C182.65 115.4 183.76 114.29 183.76 112.92C183.76 111.55 182.65 110.44 181.28 110.44C179.91 110.44 178.8 111.55 178.8 112.92C178.8 114.29 179.91 115.4 181.28 115.4Z" fill="white"/>
<path d="M179.5 108.97C181.367 108.97 182.88 107.457 182.88 105.59C182.88 103.723 181.367 102.21 179.5 102.21C177.633 102.21 176.12 103.723 176.12 105.59C176.12 107.457 177.633 108.97 179.5 108.97Z" fill="white"/>
<path d="M211.46 130.76C214.265 130.76 216.54 128.486 216.54 125.68C216.54 122.874 214.265 120.6 211.46 120.6C208.654 120.6 206.38 122.874 206.38 125.68C206.38 128.486 208.654 130.76 211.46 130.76Z" fill="#F96EAE"/>
<path d="M208.58 130.09C209.95 130.09 211.06 128.98 211.06 127.61C211.06 126.24 209.95 125.13 208.58 125.13C207.21 125.13 206.1 126.24 206.1 127.61C206.1 128.98 207.21 130.09 208.58 130.09Z" fill="white"/>
<path d="M215.37 127.72C217.237 127.72 218.75 126.207 218.75 124.34C218.75 122.473 217.237 120.96 215.37 120.96C213.503 120.96 211.99 122.473 211.99 124.34C211.99 126.207 213.503 127.72 215.37 127.72Z" fill="white"/>
</g>
<defs>
<clipPath id="clip0_583_343">
<rect width="283.46" height="283.46" fill="white"/>
</clipPath>
</defs>
</svg>
