<svg width="284" height="284" viewBox="0 0 284 284" fill="none" xmlns="http://www.w3.org/2000/svg">
<g clip-path="url(#clip0_583_310)">
<path d="M251.8 151.63C251.8 205.02 205.02 228.5 142.58 228.5C80.14 228.5 25.7 205.02 25.7 151.63C25.7 98.24 76.31 54.96 138.75 54.96C201.19 54.96 251.8 98.24 251.8 151.63Z" fill="#3FE0D1"/>
<path d="M223.54 171.55C223.54 205.31 186.79 218.06 141.46 218.06C96.1299 218.06 59.3799 205.31 59.3799 171.55C59.3799 137.79 96.1299 110.41 141.46 110.41C186.79 110.41 223.54 137.78 223.54 171.55Z" fill="white"/>
<path d="M106 180.53C111.738 180.53 116.39 173.129 116.39 164C116.39 154.871 111.738 147.47 106 147.47C100.262 147.47 95.6101 154.871 95.6101 164C95.6101 173.129 100.262 180.53 106 180.53Z" fill="#231F20"/>
<path d="M177.2 180.53C182.938 180.53 187.59 173.129 187.59 164C187.59 154.871 182.938 147.47 177.2 147.47C171.462 147.47 166.81 154.871 166.81 164C166.81 173.129 171.462 180.53 177.2 180.53Z" fill="#231F20"/>
<path d="M143.1 174.43C147.132 174.43 150.4 171.162 150.4 167.13C150.4 163.098 147.132 159.83 143.1 159.83C139.068 159.83 135.8 163.098 135.8 167.13C135.8 171.162 139.068 174.43 143.1 174.43Z" fill="#231F20"/>
<path d="M141.82 191.56C132.37 191.56 124.68 186.44 124.68 180.14C124.68 179.63 125.09 179.22 125.6 179.22C126.11 179.22 126.52 179.63 126.52 180.14C126.52 185.43 133.38 189.73 141.82 189.73C150.26 189.73 157.12 185.43 157.12 180.14C157.12 179.63 157.53 179.22 158.04 179.22C158.55 179.22 158.96 179.63 158.96 180.14C158.96 186.44 151.27 191.56 141.82 191.56Z" fill="#231F20"/>
<path d="M110.53 170.15C113.015 170.15 115.03 168.135 115.03 165.65C115.03 163.165 113.015 161.15 110.53 161.15C108.045 161.15 106.03 163.165 106.03 165.65C106.03 168.135 108.045 170.15 110.53 170.15Z" fill="white"/>
<path d="M172.95 170.15C175.435 170.15 177.45 168.135 177.45 165.65C177.45 163.165 175.435 161.15 172.95 161.15C170.465 161.15 168.45 163.165 168.45 165.65C168.45 168.135 170.465 170.15 172.95 170.15Z" fill="white"/>
<path d="M49.33 140.89C58.54 152.96 63.84 180.19 51.78 189.4C39.72 198.61 14.84 186.3 5.64 174.24C-3.57 162.17 -1.25 144.93 10.81 135.72C22.88 126.51 40.12 128.83 49.33 140.89Z" fill="#3FE0D1"/>
<path d="M234.13 140.89C224.92 152.96 219.62 180.19 231.68 189.4C243.75 198.61 268.62 186.3 277.82 174.24C287.03 162.17 284.71 144.93 272.65 135.72C260.58 126.51 243.34 128.83 234.13 140.89Z" fill="#3FE0D1"/>
</g>
<defs>
<clipPath id="clip0_583_310">
<rect width="283.46" height="283.46" fill="white"/>
</clipPath>
</defs>
</svg>
